<?xml version="1.0" standalone="no"?>
<!DOCTYPE svg PUBLIC "-//W3C//DTD SVG 20010904//EN"
 "http://www.w3.org/TR/2001/REC-SVG-20010904/DTD/svg10.dtd">
<svg version="1.0" xmlns="http://www.w3.org/2000/svg"
 width="900.000000pt" height="520.000000pt" viewBox="0 0 900.000000 520.000000"
 preserveAspectRatio="xMidYMid meet">

<g transform="translate(0.000000,520.000000) scale(0.100000,-0.100000)"
fill="#000000" stroke="none">
<path d="M2112 4719 c-138 -68 -175 -249 -75 -360 20 -22 50 -47 67 -56 17 -9
125 -42 239 -73 114 -32 210 -60 213 -63 3 -3 72 -245 153 -539 82 -293 267
-960 411 -1482 250 -899 262 -949 244 -959 -48 -27 -113 -101 -140 -160 -24
-52 -29 -74 -29 -142 1 -66 6 -91 29 -143 56 -122 178 -202 309 -202 189 0
321 121 352 323 l6 37 833 0 c917 0 846 5 846 -59 0 -113 119 -252 246 -289
229 -66 463 125 441 361 -11 118 -93 235 -201 285 -100 47 -599 92 -1770 157
-247 14 -451 26 -452 28 -3 2 -54 203 -54 211 0 3 489 6 1088 6 l1087 0 50 24
c68 31 109 81 135 163 12 37 119 412 238 833 l217 765 115 6 c129 7 169 20
228 73 57 52 86 124 80 201 -9 102 -59 173 -153 216 -38 18 -121 19 -1880 19
-1012 0 -1845 4 -1851 8 -6 4 -45 126 -88 271 -78 272 -105 335 -155 370 -41
30 -58 35 -359 117 -300 81 -350 88 -420 53z m1714 -1436 c9 -43 70 -314 134
-603 65 -289 116 -528 113 -532 -2 -5 -101 -8 -219 -8 -213 0 -215 0 -224 23
-20 42 -339 1181 -334 1189 3 4 119 8 259 8 l254 0 17 -77z m1246 66 c4 -13
-208 -1184 -217 -1199 -4 -6 -67 -10 -165 -10 -142 0 -159 2 -164 18 -3 9 -46
244 -96 522 -50 278 -98 539 -106 580 -8 41 -14 81 -14 88 0 16 756 18 762 1z
m1018 -6 c0 -10 -76 -283 -168 -608 l-167 -590 -220 0 -220 0 2 31 c2 27 247
1136 258 1172 3 9 64 12 260 12 236 0 255 -1 255 -17z"/>
</g>
</svg>
