<?xml version="1.0" standalone="no"?>
<!DOCTYPE svg PUBLIC "-//W3C//DTD SVG 20010904//EN"
 "http://www.w3.org/TR/2001/REC-SVG-20010904/DTD/svg10.dtd">
<svg version="1.0" xmlns="http://www.w3.org/2000/svg"
 width="441.000000pt" height="112.000000pt" viewBox="0 0 441.000000 112.000000"
 preserveAspectRatio="xMidYMid meet">

<g transform="translate(0.000000,112.000000) scale(0.100000,-0.100000)"
fill="#000000" stroke="none">
<path d="M388 953 c6 -2 18 -2 25 0 6 3 1 5 -13 5 -14 0 -19 -2 -12 -5z"/>
<path d="M828 953 c6 -2 18 -2 25 0 6 3 1 5 -13 5 -14 0 -19 -2 -12 -5z"/>
<path d="M454 936 c11 -9 15 -20 10 -28 -6 -10 -5 -11 7 -1 8 6 30 13 49 16
l35 4 -38 1 c-21 1 -48 7 -60 13 -21 9 -21 9 -3 -5z"/>
<path d="M740 931 l-45 -7 42 -5 c29 -3 44 0 47 8 3 7 4 12 3 11 -1 0 -22 -4
-47 -7z"/>
<path d="M273 924 c-6 -3 -28 -26 -49 -51 -33 -40 -34 -44 -11 -28 15 9 27 24
27 31 0 8 15 23 33 34 29 18 29 26 0 14z"/>
<path d="M618 923 c7 -3 16 -2 19 1 4 3 -2 6 -13 5 -11 0 -14 -3 -6 -6z"/>
<path d="M348 903 c7 -3 16 -2 19 1 4 3 -2 6 -13 5 -11 0 -14 -3 -6 -6z"/>
<path d="M445 870 c41 -42 64 -57 27 -17 -12 13 -20 25 -18 28 3 2 -7 10 -22
17 -22 10 -21 6 13 -28z"/>
<path d="M589 893 c-12 -16 -12 -17 1 -7 8 7 24 14 35 17 19 4 19 5 -1 6 -12
0 -28 -7 -35 -16z"/>
<path d="M888 903 c7 -3 16 -2 19 1 4 3 -2 6 -13 5 -11 0 -14 -3 -6 -6z"/>
<path d="M786 887 c3 -10 9 -15 12 -12 3 3 0 11 -7 18 -10 9 -11 8 -5 -6z"/>
<path d="M260 880 c-8 -5 -10 -10 -5 -10 6 0 17 5 25 10 8 5 11 10 5 10 -5 0
-17 -5 -25 -10z"/>
<path d="M981 876 c2 -2 14 -9 26 -15 18 -9 22 -9 18 2 -3 7 -15 13 -26 14
-12 1 -20 1 -18 -1z"/>
<path d="M671 854 c0 -11 3 -14 6 -6 3 7 2 16 -1 19 -3 4 -6 -2 -5 -13z"/>
<path d="M748 825 c-21 -19 -34 -35 -30 -35 5 0 23 16 42 35 44 45 36 45 -12
0z"/>
<path d="M654 819 c-3 -6 -19 -9 -35 -7 -15 3 -26 1 -23 -4 9 -13 51 -9 64 7
7 8 10 15 7 15 -3 0 -9 -5 -13 -11z"/>
<path d="M285 803 c-5 -15 -4 -16 6 -5 22 21 83 15 106 -10 11 -13 23 -30 26
-38 4 -12 6 -12 6 2 1 9 -4 20 -9 23 -6 4 -8 10 -5 14 7 13 -42 31 -84 31 -28
0 -41 -5 -46 -17z"/>
<path d="M903 805 c0 -8 4 -12 9 -9 5 3 6 10 3 15 -9 13 -12 11 -12 -6z"/>
<path d="M249 779 c-8 -16 -8 -24 1 -33 10 -8 11 -7 8 4 -3 8 -1 23 4 33 5 9
6 17 4 17 -3 0 -10 -9 -17 -21z"/>
<path d="M583 783 c20 -2 54 -2 75 0 20 2 3 4 -38 4 -41 0 -58 -2 -37 -4z"/>
<path d="M811 766 c2 -2 18 -6 34 -10 22 -5 26 -4 15 4 -14 9 -59 15 -49 6z"/>
<path d="M973 741 c1 -16 6 -27 10 -24 5 3 6 14 4 25 -4 15 -1 18 16 13 17 -5
19 -4 7 4 -26 19 -39 12 -37 -18z"/>
<path d="M827 734 c3 -7 9 -14 14 -14 14 0 10 17 -5 23 -10 4 -13 1 -9 -9z"/>
<path d="M1448 735 c-69 -22 -93 -61 -93 -150 0 -123 45 -159 200 -159 50 0
102 3 118 7 26 7 27 9 27 82 l0 75 -40 0 -40 0 0 -45 0 -45 -66 0 c-98 0 -124
18 -124 86 0 72 12 79 144 79 l116 0 0 32 c0 17 -4 34 -9 37 -24 15 -188 15
-233 1z"/>
<path d="M1823 743 l-43 -4 0 -160 0 -160 38 3 37 3 3 53 c3 43 6 53 18 48 9
-3 32 -6 52 -6 33 0 40 -5 70 -50 28 -44 36 -50 67 -50 42 0 44 12 10 62 -29
42 -31 54 -11 65 40 24 49 114 16 156 -34 43 -105 53 -257 40z m195 -105 c4
-33 -17 -41 -103 -36 -48 2 -60 6 -63 21 -8 42 4 48 85 45 77 -3 78 -4 81 -30z"/>
<path d="M2269 739 c-20 -6 -50 -24 -65 -40 -27 -28 -29 -35 -29 -114 0 -79 2
-85 29 -114 53 -56 199 -66 275 -20 85 52 81 222 -7 273 -39 22 -148 30 -203
15z m169 -85 c18 -12 22 -25 22 -69 0 -69 -19 -85 -105 -85 -86 0 -105 16
-105 85 0 69 19 85 105 85 39 0 69 -6 83 -16z"/>
<path d="M2612 631 c4 -128 14 -155 65 -188 38 -25 178 -25 216 0 51 33 61 60
65 188 l4 119 -41 0 -41 0 0 -105 c0 -130 -10 -145 -95 -145 -85 0 -95 15 -95
145 l0 105 -41 0 -41 0 4 -119z"/>
<path d="M3073 743 l-43 -4 0 -160 0 -159 39 0 c39 0 40 0 43 41 l3 41 85 2
c63 1 93 6 113 18 46 31 58 127 22 184 -24 38 -111 50 -262 37z m195 -85 c7
-7 12 -21 12 -33 0 -36 -20 -45 -97 -45 l-73 0 0 45 0 45 73 0 c43 0 78 -5 85
-12z"/>
<path d="M3475 742 c-26 -6 -30 -12 -33 -43 l-3 -35 83 3 c87 4 115 -4 105
-31 -5 -11 -19 -16 -49 -16 -115 0 -158 -38 -158 -136 l0 -64 145 0 145 0 0
40 0 40 -106 0 c-95 0 -105 2 -102 18 3 13 18 19 73 25 41 4 80 15 94 25 52
38 45 129 -12 158 -34 18 -135 27 -182 16z"/>
<path d="M3807 743 c-3 -5 -6 -44 -8 -88 l-4 -80 84 -7 c91 -8 112 -18 94 -46
-9 -14 -26 -17 -107 -16 l-96 1 0 -33 c0 -41 20 -49 130 -49 117 0 165 39 152
123 -6 45 -42 69 -110 77 -75 8 -83 11 -76 30 5 12 23 15 85 15 l79 0 0 40 0
40 -109 0 c-61 0 -112 -3 -114 -7z"/>
<path d="M527 709 c7 -7 15 -10 18 -7 3 3 -2 9 -12 12 -14 6 -15 5 -6 -5z"/>
<path d="M688 708 c5 -5 16 -8 23 -6 8 3 3 7 -10 11 -17 4 -21 3 -13 -5z"/>
<path d="M136 695 c-3 -9 -6 -22 -5 -28 0 -7 5 -1 10 12 5 13 8 26 5 28 -2 2
-6 -3 -10 -12z"/>
<path d="M817 698 c2 -5 10 -8 18 -8 8 0 16 3 18 8 3 4 -5 7 -18 7 -13 0 -21
-3 -18 -7z"/>
<path d="M985 700 c-16 -7 -17 -9 -3 -9 9 -1 20 4 23 9 7 11 7 11 -20 0z"/>
<path d="M241 684 c0 -11 3 -14 6 -6 3 7 2 16 -1 19 -3 4 -6 -2 -5 -13z"/>
<path d="M890 690 c-8 -5 -10 -10 -5 -10 6 0 17 5 25 10 8 5 11 10 5 10 -5 0
-17 -5 -25 -10z"/>
<path d="M279 668 c14 -16 32 -28 40 -27 14 0 14 1 1 6 -8 3 -26 15 -40 27
l-25 21 24 -27z"/>
<path d="M370 654 c-17 -9 -20 -14 -9 -14 9 0 22 7 29 15 15 18 13 18 -20 -1z"/>
<path d="M456 641 c-13 -5 -16 -10 -9 -14 7 -4 14 -3 18 3 4 6 11 8 16 4 17
-10 65 -16 54 -6 -15 14 -58 21 -79 13z"/>
<path d="M705 633 l-20 -16 20 8 c11 5 37 10 58 13 30 3 44 -1 63 -19 19 -18
23 -19 18 -6 -3 10 -15 22 -25 27 -27 15 -92 11 -114 -7z"/>
<path d="M287 629 c7 -7 15 -10 18 -7 3 3 -2 9 -12 12 -14 6 -15 5 -6 -5z"/>
<path d="M380 630 c-9 -6 -10 -10 -3 -10 6 0 15 5 18 10 8 12 4 12 -15 0z"/>
<path d="M885 630 c3 -5 8 -10 11 -10 2 0 4 5 4 10 0 6 -5 10 -11 10 -5 0 -7
-4 -4 -10z"/>
<path d="M328 613 c6 -2 18 -2 25 0 6 3 1 5 -13 5 -14 0 -19 -2 -12 -5z"/>
<path d="M555 590 c4 -6 -7 -10 -24 -10 -17 0 -31 -4 -31 -10 0 -5 11 -10 25
-10 16 0 25 -6 25 -15 0 -9 -10 -15 -26 -15 -15 0 -23 -4 -19 -11 7 -11 56 -9
66 3 8 12 -2 78 -13 78 -5 0 -6 -4 -3 -10z"/>
<path d="M676 587 c3 -10 9 -15 12 -12 3 3 0 11 -7 18 -10 9 -11 8 -5 -6z"/>
<path d="M852 560 c0 -19 2 -27 5 -17 2 9 2 25 0 35 -3 9 -5 1 -5 -18z"/>
<path d="M384 565 c-19 -50 37 -116 97 -113 22 1 39 5 39 10 0 9 -11 11 -55 8
-35 -1 -59 20 -69 63 -6 25 -4 27 24 27 16 0 30 5 30 10 0 16 -60 12 -66 -5z"/>
<path d="M662 550 c0 -14 2 -19 5 -12 2 6 2 18 0 25 -3 6 -5 1 -5 -13z"/>
<path d="M410 520 c0 -5 9 -10 19 -10 11 0 23 5 26 10 4 6 -5 10 -19 10 -14 0
-26 -4 -26 -10z"/>
<path d="M824 498 l-19 -23 23 19 c21 18 27 26 19 26 -2 0 -12 -10 -23 -22z"/>
<path d="M728 478 c5 -5 16 -8 23 -6 8 3 3 7 -10 11 -17 4 -21 3 -13 -5z"/>
<path d="M758 443 c6 -2 18 -2 25 0 6 3 1 5 -13 5 -14 0 -19 -2 -12 -5z"/>
<path d="M513 393 c65 -2 168 -2 230 0 62 1 9 3 -118 3 -126 0 -177 -2 -112
-3z"/>
<path d="M62 360 c0 -19 2 -27 5 -17 2 9 2 25 0 35 -3 9 -5 1 -5 -18z"/>
<path d="M349 363 c-13 -16 -12 -17 4 -4 16 13 21 21 13 21 -2 0 -10 -8 -17
-17z"/>
<path d="M1181 364 c0 -11 3 -14 6 -6 3 7 2 16 -1 19 -3 4 -6 -2 -5 -13z"/>
<path d="M890 367 c0 -1 35 -36 78 -77 l77 -75 -75 78 c-69 71 -80 82 -80 74z"/>
<path d="M1344 265 c-4 -8 -1 -22 6 -30 11 -13 193 -15 1475 -15 1282 0 1464
2 1475 15 7 8 10 22 6 30 -5 13 -173 15 -1481 15 -1308 0 -1476 -2 -1481 -15z"/>
<path d="M105 240 c10 -11 20 -20 23 -20 3 0 -3 9 -13 20 -10 11 -20 20 -23
20 -3 0 3 -9 13 -20z"/>
</g>
</svg>
