<svg id="Grid" xmlns="http://www.w3.org/2000/svg" viewBox="0 0 179 49"><defs><style>.cls-1{fill:#ed1c24;}.cls-2{fill:#261212;}</style></defs><title>LOGO</title><path class="cls-1" d="M54.8,18.92a9.73,9.73,0,0,1,3.09-7.36,10.49,10.49,0,0,1,7.54-3,10.29,10.29,0,0,1,8.45,4.07l-3,2.27a6.23,6.23,0,0,0-5.42-2.87,6.48,6.48,0,0,0-4.79,2,6.84,6.84,0,0,0,0,9.65,6.45,6.45,0,0,0,4.79,2,6.71,6.71,0,0,0,4.32-1.45,7,7,0,0,0,2.39-3.91H65.4V16.93H76.05v2.62a9.24,9.24,0,0,1-2.43,6.05,10.16,10.16,0,0,1-8.19,3.62,10.53,10.53,0,0,1-7.54-2.94,9.76,9.76,0,0,1-3.09-7.36"/><polygon class="cls-1" points="80.68 28.82 80.68 20.4 78.32 20.4 78.32 16.93 80.68 16.93 80.68 9.02 95.88 9.02 95.88 12.49 84.34 12.49 84.34 16.93 92.38 16.93 92.38 20.4 84.34 20.4 84.34 25.35 95.88 25.35 95.88 28.82 80.68 28.82"/><path class="cls-1" d="M97.77,28.82,105,12.3h-4.54V9h8.2L117,28.82H113.1l-1.51-3.72h-8.38l-1.52,3.72Zm6.74-7h5.76l-2.85-7Z"/><path class="cls-1" d="M120.59,28.82V22.57h-2.36V19.11h2.36V9H130a7.3,7.3,0,0,1,5.14,1.83,6.41,6.41,0,0,1,2,5,5.8,5.8,0,0,1-1.29,3.72,6.68,6.68,0,0,1-3.34,2.23l5,7.07h-4.6l-4.13-6.25h-4.48v6.25Zm3.66-16.33v6.62h5.48a4.14,4.14,0,0,0,2.69-.87,3,3,0,0,0,1.07-2.44,3,3,0,0,0-1.06-2.46,4.14,4.14,0,0,0-2.7-.85Z"/><polygon class="cls-1" points="147.61 29.23 138.84 9.02 142.79 9.02 147.61 21.12 152.43 9.02 156.37 9.02 147.61 29.23"/><polygon class="cls-1" points="175.79 29.23 163.02 16.68 163.02 28.82 159.37 28.82 159.37 8.62 172.13 21.17 172.13 9.02 175.79 9.02 175.79 29.23"/><path d="M67.11,37.23a3,3,0,0,1,1-2.26,3.22,3.22,0,0,1,2.31-.9A3.18,3.18,0,0,1,73,35.32L72,36a1.94,1.94,0,0,0-1.66-.88,2,2,0,0,0-1.47.62,2.1,2.1,0,0,0,0,3,2,2,0,0,0,1.47.62,2,2,0,0,0,1.32-.45,2.07,2.07,0,0,0,.73-1.2H70.36V36.62h3.26v.8a2.88,2.88,0,0,1-.74,1.86,3.12,3.12,0,0,1-2.51,1.11,3.22,3.22,0,0,1-2.31-.9,3,3,0,0,1-1-2.26"/><polygon points="78.98 40.27 78.98 37.69 78.25 37.69 78.25 36.62 78.98 36.62 78.98 34.2 83.64 34.2 83.64 35.26 80.1 35.26 80.1 36.62 82.56 36.62 82.56 37.69 80.1 37.69 80.1 39.2 83.64 39.2 83.64 40.27 78.98 40.27"/><path d="M88.15,40.26l2.21-5.06H89v-1h2.51l2.57,6.06h-1.2l-.47-1.14H89.82l-.47,1.14Zm2.07-2.14H92L91.11,36Z"/><path d="M99.08,40.27V38.35h-.72V37.29h.72V34.2H102a2.23,2.23,0,0,1,1.58.56,2,2,0,0,1,.6,1.51,1.77,1.77,0,0,1-.39,1.14,2.1,2.1,0,0,1-1,.69l1.52,2.17h-1.41l-1.27-1.92H100.2v1.92Zm1.12-5v2h1.68a1.23,1.23,0,0,0,.82-.27.89.89,0,0,0,.33-.75.91.91,0,0,0-.32-.75,1.31,1.31,0,0,0-.83-.26Z"/><polygon points="111.3 40.39 108.61 34.2 109.82 34.2 111.3 37.91 112.78 34.2 113.98 34.2 111.3 40.39"/><polygon points="123.87 40.39 119.96 36.54 119.96 40.27 118.84 40.27 118.84 34.07 122.75 37.92 122.75 34.2 123.87 34.2 123.87 40.39"/><path d="M129.44,39.8a.54.54,0,0,1,.17-.42.57.57,0,0,1,.42-.17.59.59,0,0,1,.42.17.6.6,0,0,1,0,.84.59.59,0,0,1-.42.17.58.58,0,0,1-.59-.59"/><path d="M140.74,38.49l.91.65a3.18,3.18,0,0,1-2.6,1.25,3.26,3.26,0,0,1-2.31-.9,3.19,3.19,0,0,1,0-4.52,3.26,3.26,0,0,1,2.31-.9,3.18,3.18,0,0,1,2.6,1.25l-.93.69a1.94,1.94,0,0,0-1.67-.88,2,2,0,0,0-1.46.62,2.1,2.1,0,0,0,0,3,2,2,0,0,0,1.46.62,2,2,0,0,0,1.69-.84"/><path d="M146.4,37.23a3,3,0,0,1,.95-2.26A3.41,3.41,0,0,1,152,35a3.19,3.19,0,0,1,0,4.52,3.41,3.41,0,0,1-4.62,0,3,3,0,0,1-.95-2.26m1.18,0a2,2,0,0,0,.61,1.48,2,2,0,0,0,1.47.62,2,2,0,0,0,1.47-.62,2.1,2.1,0,0,0,0-3,2,2,0,0,0-1.47-.62,2,2,0,0,0-1.47.62,2,2,0,0,0-.61,1.48"/><polygon points="158.09 40.27 158.09 34.07 160.79 36.8 163.49 34.07 163.49 40.27 162.37 40.27 162.37 36.52 160.79 38.15 159.22 36.52 159.22 40.27 158.09 40.27"/><polygon class="cls-1" points="53.71 4.5 53.5 4.5 3.21 4.52 19.25 32.3 33.35 32.3 39.66 21.36 42.12 21.34 43.98 21.34 46.42 17.13 30.88 17.13 28.47 21.34 32.25 21.34 26.37 31.36 16.87 12.94 48.84 12.92 53.71 4.5"/><polygon class="cls-2" points="26.28 44.5 32.84 33.13 19.71 33.13 26.28 44.5"/></svg>