<?xml version="1.0" standalone="no"?>
<!DOCTYPE svg PUBLIC "-//W3C//DTD SVG 20010904//EN"
 "http://www.w3.org/TR/2001/REC-SVG-20010904/DTD/svg10.dtd">
<svg version="1.0" xmlns="http://www.w3.org/2000/svg"
 width="840.000000pt" height="859.000000pt" viewBox="0 0 840.000000 859.000000"
 preserveAspectRatio="xMidYMid meet">

<g transform="translate(0.000000,859.000000) scale(0.100000,-0.100000)"
fill="#000000" stroke="none">
<path d="M2395 7069 c-116 -13 -253 -41 -287 -60 -10 -5 -26 -9 -36 -9 -10 0
-27 -7 -38 -15 -10 -8 -29 -15 -41 -15 -13 0 -23 -4 -23 -10 0 -5 -5 -10 -11
-10 -23 0 -200 -97 -219 -120 -3 -4 -32 -26 -65 -51 -63 -46 -183 -163 -225
-218 -14 -18 -31 -39 -37 -46 -7 -8 -13 -18 -13 -24 0 -6 -4 -11 -10 -11 -5 0
-12 -11 -16 -25 -3 -14 -9 -25 -14 -25 -4 0 -15 -17 -26 -37 -10 -21 -21 -40
-24 -43 -11 -11 -40 -73 -40 -86 0 -8 -4 -14 -10 -14 -5 0 -12 -16 -16 -35 -3
-19 -10 -38 -15 -41 -5 -3 -9 -13 -9 -23 0 -10 -7 -32 -15 -47 -8 -16 -15 -37
-15 -47 0 -9 -4 -25 -9 -35 -5 -9 -16 -64 -25 -122 -14 -93 -16 -270 -16
-1610 1 -1386 2 -1513 18 -1607 10 -56 21 -105 25 -109 4 -4 7 -19 7 -33 0
-14 7 -39 15 -55 8 -15 15 -37 15 -47 0 -10 4 -20 9 -23 5 -3 12 -22 15 -41 4
-19 11 -35 16 -35 6 0 10 -6 10 -14 0 -16 59 -128 82 -155 9 -10 19 -28 23
-40 3 -12 11 -21 16 -21 5 0 9 -5 9 -11 0 -6 6 -16 13 -24 6 -7 23 -28 37 -46
41 -54 162 -171 225 -219 33 -25 62 -47 65 -50 22 -25 197 -120 219 -120 6 0
11 -4 11 -10 0 -5 10 -10 23 -10 12 0 31 -7 41 -15 11 -8 28 -15 38 -15 10 0
26 -4 36 -9 40 -22 177 -48 322 -62 165 -15 3611 -6 3675 10 122 31 171 44
190 51 11 4 43 15 70 25 50 17 116 46 125 55 3 3 23 14 45 24 22 11 54 30 72
43 17 13 35 23 40 23 4 0 20 11 35 25 15 14 30 25 33 25 16 0 181 161 241 236
21 27 42 51 47 52 4 2 7 8 7 14 0 5 11 24 24 41 33 43 123 220 131 257 4 16
11 32 16 35 5 4 9 15 9 26 0 10 4 27 10 37 14 25 30 104 45 217 17 128 21
3016 5 3142 -13 94 -38 212 -51 235 -5 10 -9 26 -9 37 0 11 -6 32 -14 48 -8
15 -34 68 -58 118 -23 49 -57 111 -75 138 -18 27 -33 53 -33 57 0 5 -3 10 -7
12 -5 2 -26 25 -48 53 -63 78 -223 235 -241 235 -2 0 -17 11 -32 25 -15 14
-32 25 -39 25 -7 0 -16 6 -20 13 -4 7 -35 26 -68 42 -33 17 -62 32 -65 35 -19
19 -184 81 -275 103 -33 8 -80 21 -105 28 -36 10 -410 13 -1845 14 -990 1
-1831 -1 -1870 -6z m3615 -557 c46 -7 89 -17 94 -22 6 -6 18 -10 28 -10 20 0
91 -31 96 -42 2 -5 9 -8 14 -8 28 0 160 -96 224 -162 92 -96 184 -239 184
-287 0 -11 3 -21 8 -23 4 -1 15 -33 25 -70 16 -62 17 -171 17 -1590 0 -1420
-1 -1528 -17 -1593 -10 -38 -21 -71 -25 -73 -5 -2 -8 -10 -8 -18 0 -23 -38
-102 -78 -164 -37 -58 -163 -189 -222 -231 -19 -13 -53 -33 -75 -44 -22 -11
-42 -22 -45 -25 -11 -11 -82 -40 -98 -40 -10 0 -22 -4 -28 -10 -31 -31 -179
-34 -1869 -37 -1516 -3 -1702 -2 -1805 13 -63 8 -119 20 -124 25 -6 5 -18 9
-29 9 -26 0 -183 75 -210 100 -12 12 -37 30 -55 42 -39 24 -78 62 -123 120
-19 24 -37 45 -41 46 -5 2 -8 10 -8 18 0 8 -4 14 -10 14 -5 0 -12 11 -16 25
-3 14 -10 25 -15 25 -5 0 -9 4 -9 10 0 5 -11 33 -24 62 -28 61 -48 134 -65
233 -16 93 -10 2932 6 3015 19 97 33 144 58 198 14 29 25 57 25 62 0 6 4 10 9
10 5 0 12 11 15 25 4 14 11 25 16 25 6 0 10 6 10 14 0 8 3 16 8 18 4 2 23 23
42 48 81 103 218 199 355 250 161 59 104 58 1970 56 1296 -2 1731 -5 1795 -14z"/>
<path d="M2545 5680 c-55 -3 -113 -12 -130 -20 -44 -21 -135 -112 -135 -135 0
-12 -5 -26 -12 -33 -8 -8 -12 -42 -12 -87 0 -45 4 -79 12 -87 7 -6 12 -20 12
-30 0 -10 5 -18 10 -18 6 0 10 -6 10 -13 0 -19 66 -75 118 -100 l47 -22 1740
0 1740 0 45 22 c103 49 160 139 160 251 0 82 -19 131 -75 187 -92 94 87 86
-1780 88 -907 1 -1695 0 -1750 -3z"/>
<path d="M2425 4553 c-22 -9 -63 -39 -91 -68 -39 -40 -54 -64 -67 -111 -21
-74 -21 -84 -1 -156 21 -73 75 -137 146 -172 l52 -26 1733 0 c1606 0 1736 1
1775 17 24 9 49 23 56 30 7 7 21 18 31 25 41 30 91 140 91 203 0 63 -50 173
-91 203 -10 7 -24 18 -31 25 -7 7 -32 21 -56 30 -39 16 -168 17 -1775 16
-1561 0 -1736 -2 -1772 -16z"/>
<path d="M2460 3453 c-212 -73 -275 -304 -125 -458 90 -93 -90 -85 1877 -85
1965 0 1768 -9 1864 85 65 63 90 133 80 218 -4 31 -12 59 -17 62 -5 4 -9 15
-9 26 0 10 -4 19 -10 19 -5 0 -10 6 -10 13 -1 16 -56 68 -105 98 l-40 24
-1745 2 c-960 1 -1752 -1 -1760 -4z"/>
</g>
</svg>
