<?xml version="1.0" standalone="no"?>
<!DOCTYPE svg PUBLIC "-//W3C//DTD SVG 20010904//EN"
 "http://www.w3.org/TR/2001/REC-SVG-20010904/DTD/svg10.dtd">
<svg version="1.0" xmlns="http://www.w3.org/2000/svg"
 width="900.000000pt" height="520.000000pt" viewBox="0 0 900.000000 520.000000"
 preserveAspectRatio="xMidYMid meet">

<g transform="translate(0.000000,520.000000) scale(0.100000,-0.100000)"
fill="#000000" stroke="none">
<path d="M2445 4699 c-398 -54 -624 -488 -438 -841 70 -133 179 -228 331 -287
l67 -26 2055 -3 c1452 -2 2074 0 2120 8 105 18 223 81 306 164 181 181 224
444 108 672 -69 138 -188 240 -341 292 l-78 27 -2035 1 c-1119 1 -2062 -2
-2095 -7z m4135 -335 c99 -46 154 -131 155 -239 0 -108 -48 -187 -143 -236
l-47 -24 -2045 0 -2045 0 -45 23 c-99 52 -145 127 -145 237 1 130 83 230 208
255 23 4 947 7 2052 6 l2010 -1 45 -21z"/>
<path d="M2383 3206 c-266 -65 -457 -323 -440 -597 15 -239 169 -443 395 -521
l67 -23 2095 0 2095 0 67 23 c171 59 308 197 369 372 33 95 33 257 0 358 -56
172 -189 308 -367 375 l-59 22 -2085 2 c-1658 1 -2096 -1 -2137 -11z m4202
-330 c91 -42 155 -142 155 -242 0 -91 -70 -193 -160 -233 -45 -20 -55 -21
-2080 -21 -2025 0 -2035 1 -2080 21 -93 42 -160 142 -160 239 0 97 67 197 160
239 45 20 56 21 2080 21 l2035 0 50 -24z"/>
<path d="M2430 1733 c-180 -30 -353 -161 -429 -325 -64 -135 -76 -255 -42
-390 11 -42 31 -99 45 -126 65 -128 195 -238 341 -289 l80 -28 2075 0 2075 0
81 27 c91 31 201 104 258 170 86 99 146 255 146 378 0 224 -133 437 -332 529
-45 22 -110 44 -142 50 -42 8 -671 11 -2095 10 -1120 -1 -2047 -4 -2061 -6z
m4162 -342 c95 -49 143 -128 143 -236 -1 -108 -56 -193 -155 -239 l-45 -21
-1990 -3 c-1408 -2 -2009 0 -2054 8 -76 13 -104 27 -149 71 -107 105 -107 264
-3 369 86 86 -117 79 2171 77 l2035 -2 47 -24z"/>
</g>
</svg>
